<?xml version="1.0" encoding="utf-8" ?>
<svg baseProfile="full" height="200" version="1.1" width="200" xmlns="http://www.w3.org/2000/svg" xmlns:ev="http://www.w3.org/2001/xml-events" xmlns:xlink="http://www.w3.org/1999/xlink"><defs /><polygon fill="black" points="196.0,175.0 195.0,176.0 194.0,176.0 192.0,178.0 191.0,178.0 190.0,179.0 189.0,179.0 187.0,181.0 186.0,181.0 184.0,183.0 183.0,183.0 181.0,185.0 180.0,185.0 177.0,188.0 176.0,188.0 176.0,189.0 175.0,190.0 175.0,192.0 174.0,193.0 175.0,194.0 175.0,195.0 176.0,196.0 176.0,197.0 177.0,197.0 178.0,198.0 182.0,198.0 183.0,197.0 184.0,197.0 186.0,195.0 187.0,195.0 187.0,194.0 189.0,192.0 189.0,191.0 191.0,189.0 191.0,188.0 194.0,185.0 194.0,184.0 195.0,183.0 195.0,182.0 196.0,181.0 196.0,180.0 197.0,179.0 197.0,178.0 198.0,177.0 198.0,175.0" /></svg>