<?xml version="1.0" encoding="utf-8" ?>
<svg baseProfile="full" height="200" version="1.1" width="200" xmlns="http://www.w3.org/2000/svg" xmlns:ev="http://www.w3.org/2001/xml-events" xmlns:xlink="http://www.w3.org/1999/xlink"><defs /><polygon fill="black" points="14.0,171.0 13.0,172.0 10.0,172.0 9.0,173.0 8.0,173.0 7.0,174.0 6.0,174.0 3.0,177.0 3.0,178.0 2.0,179.0 2.0,180.0 1.0,181.0 1.0,184.0 0.0,185.0 0.0,186.0 1.0,187.0 1.0,190.0 2.0,191.0 2.0,192.0 3.0,193.0 3.0,194.0 6.0,197.0 7.0,197.0 8.0,198.0 9.0,198.0 10.0,199.0 19.0,199.0 20.0,198.0 21.0,198.0 23.0,196.0 24.0,196.0 25.0,195.0 25.0,194.0 27.0,192.0 27.0,191.0 28.0,190.0 28.0,181.0 27.0,180.0 27.0,179.0 26.0,178.0 26.0,177.0 23.0,174.0 22.0,174.0 21.0,173.0 20.0,173.0 19.0,172.0 16.0,172.0 15.0,171.0" /><polygon fill="white" points="12.0,180.0 13.0,179.0 16.0,179.0 17.0,180.0 18.0,180.0 20.0,182.0 20.0,183.0 21.0,184.0 21.0,187.0 16.0,192.0 13.0,192.0 12.0,191.0 11.0,191.0 9.0,189.0 9.0,188.0 8.0,187.0 8.0,184.0 9.0,183.0 9.0,182.0 11.0,180.0" /></svg>