<?xml version="1.0" encoding="utf-8" ?>
<svg baseProfile="full" height="200" version="1.1" width="200" xmlns="http://www.w3.org/2000/svg" xmlns:ev="http://www.w3.org/2001/xml-events" xmlns:xlink="http://www.w3.org/1999/xlink"><defs /><polygon fill="black" points="14.0,0.0 13.0,1.0 10.0,1.0 9.0,2.0 8.0,2.0 7.0,3.0 6.0,3.0 3.0,6.0 3.0,7.0 2.0,8.0 2.0,9.0 1.0,10.0 1.0,13.0 0.0,14.0 0.0,15.0 1.0,16.0 1.0,19.0 2.0,20.0 2.0,21.0 3.0,22.0 3.0,23.0 6.0,26.0 7.0,26.0 8.0,27.0 9.0,27.0 10.0,28.0 19.0,28.0 20.0,27.0 21.0,27.0 23.0,25.0 24.0,25.0 25.0,24.0 25.0,23.0 27.0,21.0 27.0,20.0 28.0,19.0 28.0,10.0 27.0,9.0 27.0,8.0 26.0,7.0 26.0,6.0 23.0,3.0 22.0,3.0 21.0,2.0 20.0,2.0 19.0,1.0 16.0,1.0 15.0,0.0" /><polygon fill="white" points="12.0,9.0 13.0,8.0 16.0,8.0 17.0,9.0 18.0,9.0 20.0,11.0 20.0,12.0 21.0,13.0 21.0,16.0 16.0,21.0 13.0,21.0 12.0,20.0 11.0,20.0 9.0,18.0 9.0,17.0 8.0,16.0 8.0,13.0 9.0,12.0 9.0,11.0 11.0,9.0" /></svg>