<?xml version="1.0" encoding="utf-8" ?>
<svg baseProfile="full" height="200" version="1.1" width="200" xmlns="http://www.w3.org/2000/svg" xmlns:ev="http://www.w3.org/2001/xml-events" xmlns:xlink="http://www.w3.org/1999/xlink"><defs /><polygon fill="black" points="185.0,171.0 184.0,172.0 181.0,172.0 180.0,173.0 179.0,173.0 178.0,174.0 177.0,174.0 174.0,177.0 174.0,178.0 173.0,179.0 173.0,180.0 172.0,181.0 172.0,184.0 171.0,185.0 171.0,186.0 172.0,187.0 172.0,190.0 173.0,191.0 173.0,192.0 174.0,193.0 174.0,194.0 177.0,197.0 178.0,197.0 179.0,198.0 180.0,198.0 181.0,199.0 190.0,199.0 191.0,198.0 192.0,198.0 194.0,196.0 195.0,196.0 196.0,195.0 196.0,194.0 198.0,192.0 198.0,191.0 199.0,190.0 199.0,181.0 198.0,180.0 198.0,179.0 197.0,178.0 197.0,177.0 194.0,174.0 193.0,174.0 192.0,173.0 191.0,173.0 190.0,172.0 187.0,172.0 186.0,171.0" /><polygon fill="white" points="183.0,180.0 184.0,179.0 187.0,179.0 188.0,180.0 189.0,180.0 191.0,182.0 191.0,183.0 192.0,184.0 192.0,187.0 187.0,192.0 184.0,192.0 183.0,191.0 182.0,191.0 180.0,189.0 180.0,188.0 179.0,187.0 179.0,184.0 180.0,183.0 180.0,182.0 182.0,180.0" /></svg>