<?xml version="1.0" encoding="utf-8" ?>
<svg baseProfile="full" height="200" version="1.1" width="200" xmlns="http://www.w3.org/2000/svg" xmlns:ev="http://www.w3.org/2001/xml-events" xmlns:xlink="http://www.w3.org/1999/xlink"><defs /><polygon fill="black" points="173.0,1.0 172.0,2.0 172.0,3.0 173.0,4.0 173.0,5.0 174.0,6.0 174.0,7.0 175.0,8.0 175.0,9.0 177.0,11.0 177.0,12.0 179.0,14.0 179.0,15.0 184.0,20.0 184.0,21.0 185.0,21.0 190.0,26.0 196.0,26.0 199.0,23.0 199.0,17.0 198.0,16.0 198.0,15.0 197.0,15.0 193.0,11.0 192.0,11.0 190.0,9.0 189.0,9.0 188.0,8.0 187.0,8.0 185.0,6.0 184.0,6.0 183.0,5.0 182.0,5.0 181.0,4.0 179.0,4.0 178.0,3.0 177.0,3.0 176.0,2.0 175.0,2.0 174.0,1.0" /></svg>